<svg width="282" height="67" viewBox="0 0 282 67" fill="none" xmlns="http://www.w3.org/2000/svg">
<path d="M8.07722 9.208C7.26122 8.08 6.78122 7.48 5.70122 7.48C4.30922 7.48 2.96522 8.488 2.96522 16.36C2.96522 24.256 4.30922 25.216 5.82122 25.216C7.26122 25.216 7.71722 24.328 7.71722 23.032C7.71722 21.592 7.26122 19.672 7.26122 16.24C7.26122 15.52 7.26122 15.304 7.45322 15.304C7.69322 15.304 7.88522 15.616 8.91722 17.152L13.1172 23.392C13.8612 24.496 14.3892 25.216 15.5172 25.216C16.8612 25.216 18.2532 24.184 18.2532 16.312C18.2532 8.392 16.8372 7.48 15.3732 7.48C13.9572 7.48 13.4772 8.368 13.4772 9.76C13.4772 10.96 13.9332 12.544 13.9332 16.36C13.9332 17.08 13.9332 17.296 13.7412 17.296C13.5012 17.296 13.3332 16.984 12.3012 15.448L8.07722 9.208ZM27.1497 25.168C33.0057 25.168 35.0697 24.328 35.0697 22.624C35.0697 21.64 34.4217 21.184 33.5577 21.184C32.4297 21.184 31.2537 21.544 28.8777 21.544C28.3257 21.544 27.7497 21.52 27.0537 21.496C27.0057 21.112 26.8857 20.2 26.8137 19.024C30.9657 19 32.2857 18.544 32.2857 17.152C32.2857 15.928 31.4217 15.472 30.1017 15.472H26.7417C26.7417 13.288 26.8857 12.16 27.0057 11.296H32.2617C33.6297 11.296 34.4937 10.768 34.4937 9.568C34.4937 8.32 34.0137 7.72 30.8457 7.72H24.9177C24.0777 7.72 23.5017 7.936 23.0457 8.824C22.5657 9.88 22.4217 12.016 22.4217 16.36C22.4217 24.64 22.7577 25.168 27.1497 25.168ZM41.8231 25.24C42.6871 25.24 43.2631 24.664 43.7191 23.68C43.9591 23.152 44.3671 22.048 45.5671 18.088C45.8791 16.984 46.0471 16.456 46.3591 16.456C46.7191 16.456 46.8391 16.984 47.1991 18.112C47.8231 20.032 48.1831 21.928 48.9991 23.68C49.4551 24.712 50.0311 25.24 50.9191 25.24C53.1991 25.24 53.7991 20.104 54.5191 16.864C55.2871 13.312 55.8151 11.032 55.8151 9.616C55.8151 8.056 55.2391 7.48 53.8951 7.48C52.2391 7.48 51.7111 8.44 51.5191 9.64C51.2551 11.272 51.1351 12.856 50.7511 14.368C50.6311 14.896 50.4871 15.352 50.1751 15.352C49.8871 15.352 49.7191 14.968 49.5031 14.32C49.0951 13.144 48.9031 12.064 48.5911 10.96C48.1351 9.328 47.7751 8.152 46.3591 8.152C44.9191 8.152 44.5351 9.472 44.1031 11.08C43.6471 12.832 43.4791 13.696 43.2631 14.296C43.0711 14.872 42.8311 15.352 42.5911 15.352C42.2791 15.352 42.1351 14.896 41.9911 14.368C41.5351 12.76 41.5831 11.152 41.2231 9.64C40.9351 8.44 40.5511 7.48 38.8471 7.48C37.5031 7.48 36.9511 8.056 36.9511 9.616C36.9511 11.032 37.4071 13.312 38.2231 16.864C38.9671 20.152 39.4711 25.24 41.8231 25.24ZM66.3783 23.728C66.3783 24.832 67.1943 25.456 68.1783 25.456C70.5063 25.456 74.0583 21.856 76.7463 16.816C78.7143 13.144 79.4343 10.312 79.4343 9.112C79.4343 8.224 78.8103 7.48 77.5623 7.48C75.9303 7.48 75.6183 8.8 74.8983 10.912C74.1063 13.24 73.6263 14.92 73.2423 14.92C72.8583 14.92 71.7063 13.744 71.2263 13.12C70.4103 11.992 69.9063 11.008 69.5463 10.168C68.8263 8.608 68.3223 7.48 66.7383 7.48C65.6583 7.48 64.7943 8.272 64.7943 9.664C64.7943 11.536 66.4743 15.424 71.0823 18.64C69.8823 20.176 68.7063 21.016 67.8423 21.664C66.9543 22.336 66.3783 22.768 66.3783 23.728ZM80.9238 16.36C80.9238 21.256 83.5158 25.24 88.6998 25.24C93.8838 25.24 96.4518 21.256 96.4518 16.36C96.4518 11.464 93.8838 7.48 88.6998 7.48C83.5158 7.48 80.9238 11.464 80.9238 16.36ZM85.3398 16.36C85.3398 13.408 86.4438 11.008 88.6998 11.008C90.8838 11.008 92.0358 13.408 92.0358 16.36C92.0358 19.312 90.8838 21.712 88.6998 21.712C86.4438 21.712 85.3398 19.312 85.3398 16.36ZM114.355 12.76C114.355 8.8 110.827 7.624 106.987 7.624C102.955 7.624 101.539 7.96 100.867 8.584C99.9072 9.472 99.8112 11.56 99.8112 16.312C99.8112 24.448 100.747 25.24 102.691 25.24C104.059 25.24 104.563 24.448 104.563 23.128C104.563 21.832 104.107 20.44 104.131 18.352C104.803 18.4 105.619 18.4 106.627 18.4C110.635 24.28 111.523 25.24 113.227 25.24C114.475 25.24 115.051 24.592 115.051 23.536C115.051 22.816 114.667 22.336 113.995 21.52C113.299 20.776 112.315 19.672 111.091 17.776C112.987 17.008 114.355 15.424 114.355 12.76ZM104.275 11.248C105.283 11.2 106.219 11.128 107.179 11.128C108.715 11.128 110.251 11.368 110.251 12.952C110.251 14.488 108.811 14.92 106.579 14.92C106.051 14.92 105.331 14.92 104.107 14.848C104.107 12.832 104.179 11.872 104.275 11.248ZM122.819 9.808C122.819 8.368 122.387 7.48 120.923 7.48C119.411 7.48 118.067 8.44 118.067 16.36C118.067 24.256 119.411 25.24 120.923 25.24C122.363 25.24 122.819 24.352 122.819 22.936C122.819 21.832 122.531 20.704 122.459 19.912C122.291 17.944 122.339 17.8 122.483 17.8C122.723 17.8 123.083 18.16 124.643 19.84C128.267 23.608 129.779 25.24 131.747 25.24C133.019 25.24 133.643 24.568 133.643 23.512C133.643 22.552 133.115 22.12 131.819 20.992C130.979 20.248 128.147 17.704 126.299 15.664C127.331 14.728 128.699 13.528 128.891 13.36C131.171 11.416 132.491 10.288 132.491 8.992C132.491 8.2 132.011 7.48 130.595 7.48C129.035 7.48 128.315 8.392 126.251 10.576C123.611 13.384 122.939 14.2 122.579 14.2C122.387 14.2 122.363 13.864 122.579 11.968C122.747 10.48 122.819 9.976 122.819 9.808Z" fill="white" fill-opacity="0.4"/>
<path d="M179.934 51.584C179.934 54.8 179.91 57.2 180.51 57.872C181.134 58.592 182.742 59.24 186.054 59.24C191.574 59.24 195.006 57.272 195.006 53.24C195.006 51.056 193.998 49.832 192.318 49.04V48.992C193.446 48.248 193.878 47.12 193.878 45.944C193.878 42.704 190.902 41.432 186.51 41.456C181.758 41.432 181.014 42.008 180.438 42.752C179.982 43.328 179.934 44.912 179.934 47.792V51.584ZM184.23 51.728C185.142 51.632 186.222 51.632 187.23 51.632C189.222 51.632 190.83 51.992 190.83 53.432C190.83 55.136 188.646 55.688 186.942 55.688C186.054 55.688 185.046 55.592 184.398 55.424C184.23 54.128 184.23 52.928 184.23 51.728ZM184.398 45.128C185.478 45.008 185.862 44.984 186.438 44.984C187.95 44.984 189.822 45.176 189.822 46.544C189.822 47.888 188.358 48.248 186.438 48.248C186.006 48.248 185.286 48.248 184.326 48.2C184.326 46.04 184.374 45.392 184.398 45.128ZM197.35 50.36C197.35 55.256 199.942 59.24 205.126 59.24C210.31 59.24 212.878 55.256 212.878 50.36C212.878 45.464 210.31 41.48 205.126 41.48C199.942 41.48 197.35 45.464 197.35 50.36ZM201.766 50.36C201.766 47.408 202.87 45.008 205.126 45.008C207.31 45.008 208.462 47.408 208.462 50.36C208.462 53.312 207.31 55.712 205.126 55.712C202.87 55.712 201.766 53.312 201.766 50.36ZM221.637 59.408C225.837 59.408 228.621 57.104 228.621 53.648C228.621 49.76 225.069 48.704 222.741 48.104C221.109 47.696 219.933 47.456 219.933 46.328C219.933 45.392 220.725 44.84 221.877 44.84C222.813 44.84 223.509 45.248 224.133 45.704C224.613 46.064 225.069 46.448 225.981 46.448C227.229 46.448 227.757 45.752 227.757 44.816C227.757 42.584 224.805 41.312 221.901 41.312C217.845 41.312 215.517 43.688 215.517 46.688C215.517 49.88 218.157 51.128 220.845 51.752C222.285 52.088 224.157 52.328 224.157 54.008C224.157 55.304 223.053 55.88 221.733 55.88C220.317 55.88 219.645 55.232 219.093 54.752C218.517 54.248 218.037 53.84 217.005 53.84C215.733 53.84 215.229 54.488 215.229 55.496C215.229 58.016 218.421 59.408 221.637 59.408ZM242.367 45.344C243.399 45.344 244.119 44.816 244.119 43.688C244.119 41.792 242.727 41.6 236.991 41.6C231.279 41.6 229.839 41.792 229.839 43.688C229.839 44.816 230.559 45.344 231.591 45.344H234.687V55.04C234.687 58.376 234.975 59.24 236.967 59.24C238.935 59.24 239.271 58.376 239.271 55.04V45.344H242.367ZM245.162 50.36C245.162 55.256 247.754 59.24 252.938 59.24C258.122 59.24 260.69 55.256 260.69 50.36C260.69 45.464 258.122 41.48 252.938 41.48C247.754 41.48 245.162 45.464 245.162 50.36ZM249.578 50.36C249.578 47.408 250.682 45.008 252.938 45.008C255.122 45.008 256.274 47.408 256.274 50.36C256.274 53.312 255.122 55.712 252.938 55.712C250.682 55.712 249.578 53.312 249.578 50.36ZM269.066 43.208C268.25 42.08 267.77 41.48 266.69 41.48C265.298 41.48 263.954 42.488 263.954 50.36C263.954 58.256 265.298 59.216 266.81 59.216C268.25 59.216 268.706 58.328 268.706 57.032C268.706 55.592 268.25 53.672 268.25 50.24C268.25 49.52 268.25 49.304 268.442 49.304C268.682 49.304 268.874 49.616 269.906 51.152L274.106 57.392C274.85 58.496 275.378 59.216 276.506 59.216C277.85 59.216 279.242 58.184 279.242 50.312C279.242 42.392 277.826 41.48 276.362 41.48C274.946 41.48 274.466 42.368 274.466 43.76C274.466 44.96 274.922 46.544 274.922 50.36C274.922 51.08 274.922 51.296 274.73 51.296C274.49 51.296 274.322 50.984 273.29 49.448L269.066 43.208Z" fill="white" fill-opacity="0.4"/>
<path d="M139 47.0179C139 46.1163 139.387 45.258 140.062 44.6608L171.769 16.625C173.8 14.8292 177 16.2711 177 18.9821V18.9821C177 19.8837 176.613 20.742 175.938 21.3392L144.231 49.375C142.2 51.1708 139 49.7289 139 47.0179V47.0179Z" fill="white" fill-opacity="0.2"/>
</svg>
